<?xml version="1.0" encoding="utf-8"?>
<!-- Uploaded to: SVG Repo, www.svgrepo.com, Generator: SVG Repo Mixer Tools -->
<svg width="800px" height="800px" viewBox="0 0 1024 1024" class="icon"  version="1.1" xmlns="http://www.w3.org/2000/svg"><path d="M682.9 239c0 12.3-1.3 24.4-3.8 36-4.3 20-12.2 38.8-22.8 55.5-30.2 47.3-83.2 78.6-143.4 78.6-59.7 0-112.2-30.8-142.5-77.3-11.4-17.4-19.6-37.1-24-58.1-2.3-11.2-3.5-22.8-3.5-34.6C342.9 145.2 419 69 513 69c9.5 0 18.9 0.8 28 2.3 7.1 1.2 14.1 2.8 20.8 4.8 70 20.9 121.1 86 121.1 162.9z" fill="#843A5F" /><path d="M512.8 412.1c-58.7 0-113-29.4-145.1-78.7-11.8-18.1-20-38-24.4-59.2-2.4-11.5-3.6-23.4-3.6-35.2 0-95.4 77.6-173.1 173.1-173.1 9.6 0 19.1 0.8 28.5 2.3 7.1 1.2 14.3 2.8 21.2 4.9 34.9 10.5 66.4 32.3 88.5 61.6C673.8 165 685.9 201 685.9 239c0 12.4-1.3 24.7-3.9 36.6-4.3 20.1-12.1 39.1-23.3 56.5-31.9 50.1-86.5 80-145.9 80z m0-340.1c-92.1 0-167.1 75-167.1 167.1 0 11.5 1.2 22.9 3.5 34 4.2 20.4 12.2 39.6 23.6 57.1 31 47.6 83.3 75.9 140 75.9 57.3 0 110-28.9 140.9-77.2 10.7-16.8 18.3-35.1 22.4-54.5 2.5-11.5 3.7-23.4 3.7-35.3 0-73.3-49-139.1-119.1-160.1-6.7-2-13.6-3.6-20.5-4.7-8.9-1.6-18.1-2.3-27.4-2.3z" fill="#843A5F" /><path d="M511.9 653.4m-214 0a214 214 0 1 0 428 0 214 214 0 1 0-428 0Z" fill="#AE9AA4" /><path d="M511.9 870.4c-58 0-112.5-22.6-153.5-63.6s-63.6-95.5-63.6-153.5 22.6-112.5 63.6-153.5 95.5-63.6 153.5-63.6 112.5 22.6 153.5 63.6S729 595.3 729 653.3s-22.6 112.5-63.6 153.5-95.6 63.6-153.5 63.6z m0-428.1c-116.4 0-211 94.7-211 211s94.7 211 211 211 211-94.7 211-211-94.7-211-211-211z" fill="#843A5F" /><path d="M511.9 574.6l-70.5-122h140.9z" fill="#FFFFFF" /><path d="M511.9 580.6l-75.6-131h151.3l-75.7 131z m-65.3-125l65.2 113 65.2-113H446.6z" fill="#843A5F" /><path d="M370.3 179.8v193.7c0 43.5 35.6 79.1 79.1 79.1h127.8c43.5 0 79.1-35.6 79.1-79.1V179.8" fill="#E6D8DF" /><path d="M577.1 455.6H449.4c-45.3 0-82.1-36.8-82.1-82.1V179.8h6v193.7c0 42 34.1 76.1 76.1 76.1h127.8c42 0 76.1-34.1 76.1-76.1V179.8h6v193.7c-0.1 45.3-36.9 82.1-82.2 82.1z" fill="#843A5F" /><path d="M432.6 262m-67.9 0a67.9 67.9 0 1 0 135.8 0 67.9 67.9 0 1 0-135.8 0Z" fill="#FFFFFF" /><path d="M432.6 332.9c-39.1 0-70.9-31.8-70.9-70.9 0-39.1 31.8-70.9 70.9-70.9 39.1 0 70.9 31.8 70.9 70.9 0.1 39.1-31.8 70.9-70.9 70.9z m0-135.9c-35.8 0-64.9 29.1-64.9 64.9s29.1 64.9 64.9 64.9 64.9-29.1 64.9-64.9-29.1-64.9-64.9-64.9z" fill="#843A5F" /><path d="M593.3 262m-67.9 0a67.9 67.9 0 1 0 135.8 0 67.9 67.9 0 1 0-135.8 0Z" fill="#FFFFFF" /><path d="M593.3 332.9c-39.1 0-70.9-31.8-70.9-70.9 0-39.1 31.8-70.9 70.9-70.9 39.1 0 70.9 31.8 70.9 70.9 0 39.1-31.8 70.9-70.9 70.9z m0-135.9c-35.8 0-64.9 29.1-64.9 64.9s29.1 64.9 64.9 64.9 64.9-29.1 64.9-64.9-29.1-64.9-64.9-64.9z" fill="#843A5F" /><path d="M532.7 276.7h-6c0-7.4-6-13.4-13.4-13.4s-13.4 6-13.4 13.4h-6c0-10.7 8.7-19.4 19.4-19.4s19.4 8.7 19.4 19.4zM513 408.7c-23.1 0-46.5-5.6-46.5-16.3h6c0 3.5 14.3 10.3 40.5 10.3s40.5-6.8 40.5-10.3h6c0 10.7-23.4 16.3-46.5 16.3z" fill="#843A5F" /><path d="M749.8 917H275.3c-6.6 0-12-5.4-12-12V529.4c0-6.6 5.4-12 12-12h474.5c6.6 0 12 5.4 12 12V905c0 6.6-5.4 12-12 12z" fill="#FFFFFF" /><path d="M749.8 920H275.3c-8.3 0-15-6.7-15-15V529.4c0-8.3 6.7-15 15-15h474.5c8.3 0 15 6.7 15 15V905c0 8.3-6.7 15-15 15zM275.3 520.4c-5 0-9 4-9 9V905c0 5 4 9 9 9h474.5c5 0 9-4 9-9V529.4c0-5-4-9-9-9H275.3z" fill="#843A5F" /><path d="M651 134.7c-21.8-28.8-52.5-50.4-86.8-61l-1.7-0.5c-7-2.1-14.1-3.7-21.2-4.9h-0.1l-2.8-0.5c-8.4-1.3-17-1.9-25.6-1.9-95.4 0-173.1 77.6-173.1 173.1 0 11.9 1.2 23.7 3.6 35.2l0.4 1.8 1.7 0.5c6.8 2 13.8 3.7 20.8 4.8l3.6 0.6c8.3 1.2 16.8 1.8 25.2 1.8 38.5 0 74.9-12.4 105.3-35.7 22-16.9 39.8-39 51.5-64.1 3.1 6.2 6.5 12.2 10.3 18 22 33.5 55.1 58.6 93.1 70.5 1.5 0.5 2.9 0.9 4.4 1.3 6.1 1.7 12.5 3.2 18.8 4.2l2.8 0.5 0.6-2.8c2.6-11.9 3.9-24.2 3.9-36.6 0.2-38-11.9-74-34.7-104.3z" fill="#843A5F" /><path d="M785.3 746.5c-12.9 18-33.9 18-46.8 0-12.9-18-12.9-47.1 0-65 12.9-18 33.9-18 46.8 0 12.9 17.9 12.9 47 0 65z" fill="#E6D8DF" /><path d="M761.9 762.9c-9.8 0-19-5.2-25.8-14.7-13.6-18.9-13.6-49.7 0-68.6 6.8-9.5 16-14.7 25.8-14.7s19 5.2 25.8 14.7c13.6 18.9 13.6 49.7 0 68.6-6.8 9.5-16 14.7-25.8 14.7z m0-91.9c-7.8 0-15.3 4.3-21 12.2-12.2 17-12.2 44.6 0 61.5 5.7 7.9 13.1 12.2 21 12.2 7.8 0 15.3-4.3 21-12.2 12.2-17 12.2-44.6 0-61.5-5.7-7.9-13.1-12.2-21-12.2z" fill="#843A5F" /><path d="M287.2 746.5c-12.9 18-33.9 18-46.8 0-12.9-18-12.9-47.1 0-65 12.9-18 33.9-18 46.8 0 12.9 17.9 12.9 47 0 65z" fill="#E6D8DF" /><path d="M263.8 762.9c-9.8 0-19-5.2-25.8-14.7-13.6-18.9-13.6-49.7 0-68.6 6.8-9.5 16-14.7 25.8-14.7s19 5.2 25.8 14.7c13.6 18.9 13.6 49.7 0 68.6-6.8 9.5-16 14.7-25.8 14.7z m0-91.9c-7.8 0-15.3 4.3-21 12.2-12.2 17-12.2 44.6 0 61.5 5.7 7.9 13.1 12.2 21 12.2 7.8 0 15.3-4.3 21-12.2 12.2-17 12.2-44.6 0-61.5-5.8-7.9-13.2-12.2-21-12.2z" fill="#843A5F" /><path d="M363.2 782.5s79.3-54.7 163.3 0c0 0 65.3 32.7 126.7-0.7v-122c-61.3 33.3-126.7 0.7-126.7 0.7-84-54.7-163.3 0-163.3 0v122z" fill="#AE9AA4" /><path d="M592.2 799.8c-9.5 0-18.3-0.9-25.8-2.2-24.2-4-40.5-12.1-41.2-12.4l-0.3-0.2c-34.1-22.2-71.3-28.9-110.6-20.1-29.5 6.6-49.2 20-49.3 20.1l-4.7 3.2V658.9l1.3-0.9c0.8-0.6 20.7-14.1 51.2-21 28.2-6.4 71.1-7.9 115.3 20.8 3.4 1.6 65.9 30.8 123.8-0.7l1.1-0.6 3.4 1v128.3l-2.7-0.8c-21.4 11.3-43 14.8-61.5 14.8zM528 779.9c3.4 1.6 64.8 30.2 122.2 0.1V664.7c-31 15.3-62.5 14.4-83.8 10.9-24.2-4-40.5-12.1-41.2-12.4l-0.3-0.2c-34.1-22.2-71.3-28.9-110.6-20.1-25.2 5.6-43.2 16.2-48.1 19.3v115c7.7-4.5 24.2-13 46.5-18 28.2-6.5 71.1-8 115.3 20.7z" fill="#843A5F" /><path d="M363.2 744.3s79.3-69.3 163.3 0c0 0 65.3 41.4 126.7-0.8V588.7c-61.3 42.2-126.7 0.8-126.7 0.8-84-69.3-163.3 0-163.3 0v154.8z" fill="#E6D8DF" /><path d="M592.2 765.4c-9.6 0-18.4-1.2-25.9-2.8-24.3-5.1-40.6-15.4-41.3-15.8l-0.3-0.2c-34-28-71-36.6-110.2-25.5-29.4 8.3-49 25.2-49.2 25.4l-5 4.3V588.2l1-0.9c0.8-0.7 20.7-17.9 51.3-26.6 28.3-8.1 71.4-10.1 115.7 26.4 1.7 1 17.3 10.3 39.4 15 30.9 6.5 59.1 1.2 83.8-15.8l1.2-0.8 3.5 1v161l-2.5-0.7c-21.2 14.2-42.9 18.6-61.5 18.6z m-63.9-23.6c1.7 1 17.3 10.3 39.4 15 30.4 6.4 58.2 1.3 82.5-15V594.3c-31.1 19.3-62.6 18.2-84 13.7-24.3-5.1-40.6-15.4-41.3-15.8l-0.3-0.2c-34-28-71-36.6-110.2-25.5-25.6 7.3-43.8 21-48.2 24.6v147.1c7.8-5.7 24.3-16.4 46.3-22.7 28.4-8.2 71.5-10.2 115.8 26.3z" fill="#843A5F" /><path d="M468.8 612.9h13l26.5 42.2 26.5-42.2h13L521.2 654H539v10.3h-24.3v10.3H539v10.3h-24.3v20.5h-12.4v-20.5H478v-10.3h24.3v-10.3H478V654h17.3l-26.5-41.1z" fill="#843A5F" /><path d="M444.4 846.8l10.1 3.2c-1.5 5.6-4.1 9.8-7.7 12.5s-8.2 4.1-13.7 4.1c-6.8 0-12.5-2.3-16.9-7s-6.6-11.1-6.6-19.2c0-8.6 2.2-15.2 6.6-20s10.3-7.1 17.5-7.1c6.3 0 11.4 1.9 15.4 5.6 2.3 2.2 4.1 5.4 5.3 9.5l-10.3 2.5c-0.6-2.7-1.9-4.8-3.8-6.3s-4.3-2.3-7-2.3c-3.8 0-6.9 1.4-9.3 4.1s-3.6 7.2-3.6 13.3c0 6.5 1.2 11.2 3.5 13.9s5.4 4.1 9.1 4.1c2.8 0 5.1-0.9 7.1-2.6s3.5-4.5 4.3-8.3zM509.9 865.8h-11.3l-4.5-11.7h-20.6l-4.3 11.7h-11l20.1-51.5h11l20.6 51.5z m-19.1-20.4l-7.1-19.1-7 19.1h14.1zM512.8 849l10.1-1c0.6 3.4 1.8 5.9 3.7 7.5s4.4 2.4 7.5 2.4c3.4 0 5.9-0.7 7.6-2.1s2.5-3.1 2.5-5c0-1.2-0.4-2.3-1.1-3.1s-2-1.6-3.7-2.2c-1.2-0.4-4-1.2-8.3-2.3-5.6-1.4-9.5-3.1-11.7-5.1-3.2-2.8-4.7-6.3-4.7-10.4 0-2.6 0.7-5.1 2.2-7.4s3.6-4 6.4-5.2 6.2-1.8 10.1-1.8c6.5 0 11.3 1.4 14.6 4.3s5 6.6 5.2 11.4l-10.4 0.5c-0.4-2.6-1.4-4.6-2.9-5.7s-3.7-1.7-6.6-1.7c-3 0-5.4 0.6-7.1 1.9-1.1 0.8-1.7 1.9-1.7 3.2 0 1.2 0.5 2.3 1.5 3.1 1.3 1.1 4.5 2.3 9.6 3.4s8.8 2.4 11.2 3.7 4.3 3 5.7 5.2 2.1 5 2.1 8.2c0 3-0.8 5.7-2.5 8.3s-4 4.5-7 5.7-6.7 1.9-11.2 1.9c-6.5 0-11.5-1.5-15-4.5s-5.4-7.4-6.1-13.2zM563.5 865.8v-51.5h10.4v20.3h20.4v-20.3h10.4v51.5h-10.4v-22.5h-20.4v22.5h-10.4z" fill="#843A5F" /></svg>