<?xml version="1.0" encoding="UTF-8"?>

<!DOCTYPE svg PUBLIC "-//W3C//DTD SVG 1.0//EN" "http://www.w3.org/TR/2001/REC-SVG-20010904/DTD/svg10.dtd" [
<!ATTLIST g
xmlns:kvg CDATA #FIXED "http://kanjivg.tagaini.net"
kvg:element CDATA #IMPLIED
kvg:variant CDATA #IMPLIED
kvg:partial CDATA #IMPLIED
kvg:original CDATA #IMPLIED
kvg:part CDATA #IMPLIED
kvg:number CDATA #IMPLIED
kvg:tradForm CDATA #IMPLIED
kvg:radicalForm CDATA #IMPLIED
kvg:position CDATA #IMPLIED
kvg:radical CDATA #IMPLIED
kvg:phon CDATA #IMPLIED >
<!ATTLIST path
xmlns:kvg CDATA #FIXED "http://kanjivg.tagaini.net"
kvg:type CDATA #IMPLIED >
]>
<svg xmlns="http://www.w3.org/2000/svg" width="109" height="109" viewBox="0 0 109 109">
<g id="kvg:StrokePaths_04e4b" style="fill:none;stroke:#000000;stroke-width:3;stroke-linecap:round;stroke-linejoin:round;">
<g id="kvg:04e4b" kvg:element="之">
	<g id="kvg:04e4b-g1" kvg:element="亠" kvg:variant="true" kvg:radical="nelson">
		<g id="kvg:04e4b-g2" kvg:element="丶" kvg:variant="true" kvg:radical="tradit">
			<path id="kvg:04e4b-s1" kvg:type="㇑a" d="M50.65,16.5c1.3,1.3,1.42,2.5,1.42,4.52c0,3.9-0.06,12.06-0.06,15.6"/>
		</g>
		<path id="kvg:04e4b-s2" kvg:type="㇇" d="M23.58,41.5c2.54,1.13,5.41,0.73,8.07,0.26c10.23-1.81,30.92-5.79,38.18-7.01c5.92-1,7.65,2.76,2.5,6.5C55.62,53.38,41.5,62,24,71.25"/>
	</g>
	<path id="kvg:04e4b-s3" kvg:type="㇏" d="M14.75,72.5c2.75-0.25,5.37,0.07,7.17,0.37c18.58,3.13,33.83,10,50.39,14.99C78.76,89.81,81.5,90.38,87,91"/>
</g>
</g>
<g id="kvg:StrokeNumbers_04e4b" font-size="8" fill="#210c0c">
	<text transform="matrix(1 0 0 1 40.75 18.13)">1</text>
	<text transform="matrix(1 0 0 1 16.25 42.05)">2</text>
	<text transform="matrix(1 0 0 1 7.25 74.25)">3</text>
</g>
</svg>

