<?xml version="1.0" encoding="UTF-8"?>

<!DOCTYPE svg PUBLIC "-//W3C//DTD SVG 1.0//EN" "http://www.w3.org/TR/2001/REC-SVG-20010904/DTD/svg10.dtd" [
<!ATTLIST g
xmlns:kvg CDATA #FIXED "http://kanjivg.tagaini.net"
kvg:element CDATA #IMPLIED
kvg:variant CDATA #IMPLIED
kvg:partial CDATA #IMPLIED
kvg:original CDATA #IMPLIED
kvg:part CDATA #IMPLIED
kvg:number CDATA #IMPLIED
kvg:tradForm CDATA #IMPLIED
kvg:radicalForm CDATA #IMPLIED
kvg:position CDATA #IMPLIED
kvg:radical CDATA #IMPLIED
kvg:phon CDATA #IMPLIED >
<!ATTLIST path
xmlns:kvg CDATA #FIXED "http://kanjivg.tagaini.net"
kvg:type CDATA #IMPLIED >
]>
<svg xmlns="http://www.w3.org/2000/svg" width="109" height="109" viewBox="0 0 109 109">
<g id="kvg:StrokePaths_056ee" style="fill:none;stroke:#000000;stroke-width:3;stroke-linecap:round;stroke-linejoin:round;">
<g id="kvg:056ee" kvg:element="囮">
	<g id="kvg:056ee-g1" kvg:element="囗" kvg:part="1" kvg:position="kamae" kvg:radical="general">
		<path id="kvg:056ee-s1" kvg:type="㇑" d="M19.25,15.82c0.75,1.43,1.34,2.51,1.36,4.41c0.14,14.27,0.14,49.02-0.31,76.27"/>
		<path id="kvg:056ee-s2" kvg:type="㇕a" d="M20.23,17.65C38.25,16,73.68,13.5,85.75,13.5c2.75,0,3.55,2.49,3.5,5.5c-0.25,15.75-0.5,52.75,0,75"/>
	</g>
	<g id="kvg:056ee-g2" kvg:element="化">
		<g id="kvg:056ee-g3" kvg:element="亻" kvg:variant="true" kvg:original="人" kvg:position="left">
			<path id="kvg:056ee-s3" kvg:type="㇒" d="M45.88,24.06c0.16,1.48-0.04,3.41-0.57,4.67C41.95,36.79,37.7,44.35,30,54.16"/>
			<path id="kvg:056ee-s4" kvg:type="㇑" d="M39.33,47.49C40.5,48,40.96,49,41.02,51.24c0.25,9-0.64,27.31-0.36,32.43"/>
		</g>
		<g id="kvg:056ee-g4" kvg:element="匕" kvg:position="right">
			<path id="kvg:056ee-s5" kvg:type="㇒" d="M78.33,32.28c0,1.5-0.2,2.2-1.18,3.63c-3.12,4.51-12.5,12.93-17.57,14.5"/>
			<path id="kvg:056ee-s6" kvg:type="㇟" d="M56.46,24.08c0.45,0.84,0.91,1.41,1.06,2.53c0.11,0.84-0.11,24.49-0.11,37.69c0,15.77,0.41,16.37,10.52,16.37c11.32,0,11.32-1.52,11.32-9.57"/>
		</g>
	</g>
	<g id="kvg:056ee-g5" kvg:element="囗" kvg:part="2" kvg:position="kamae" kvg:radical="general">
		<path id="kvg:056ee-s7" kvg:type="㇐a" d="M21.25,93.51c13.07,0,49.96-2.6,68-3.01"/>
	</g>
</g>
</g>
<g id="kvg:StrokeNumbers_056ee" font-size="8" fill="#210c0c">
	<text transform="matrix(1 0 0 1 13.50 24.50)">1</text>
	<text transform="matrix(1 0 0 1 23.50 14.50)">2</text>
	<text transform="matrix(1 0 0 1 37.50 27.50)">3</text>
	<text transform="matrix(1 0 0 1 33.25 58.50)">4</text>
	<text transform="matrix(1 0 0 1 70.50 32.50)">5</text>
	<text transform="matrix(1 0 0 1 50.25 33.25)">6</text>
	<text transform="matrix(1 0 0 1 26.50 90.50)">7</text>
</g>
</svg>

