<?xml version="1.0" encoding="UTF-8"?>

<!DOCTYPE svg PUBLIC "-//W3C//DTD SVG 1.0//EN" "http://www.w3.org/TR/2001/REC-SVG-20010904/DTD/svg10.dtd" [
<!ATTLIST g
xmlns:kvg CDATA #FIXED "http://kanjivg.tagaini.net"
kvg:element CDATA #IMPLIED
kvg:variant CDATA #IMPLIED
kvg:partial CDATA #IMPLIED
kvg:original CDATA #IMPLIED
kvg:part CDATA #IMPLIED
kvg:number CDATA #IMPLIED
kvg:tradForm CDATA #IMPLIED
kvg:radicalForm CDATA #IMPLIED
kvg:position CDATA #IMPLIED
kvg:radical CDATA #IMPLIED
kvg:phon CDATA #IMPLIED >
<!ATTLIST path
xmlns:kvg CDATA #FIXED "http://kanjivg.tagaini.net"
kvg:type CDATA #IMPLIED >
]>
<svg xmlns="http://www.w3.org/2000/svg" width="109" height="109" viewBox="0 0 109 109">
<g id="kvg:StrokePaths_07f36" style="fill:none;stroke:#000000;stroke-width:3;stroke-linecap:round;stroke-linejoin:round;">
<g id="kvg:07f36" kvg:element="缶" kvg:radical="general">
	<path id="kvg:07f36-s1" kvg:type="㇒" d="M40.99,14.64c0.06,0.77-0.16,2.07-0.62,3.11c-2.87,6.5-11.1,19.94-22.87,28.75"/>
	<path id="kvg:07f36-s2" kvg:type="㇐" d="M36.63,30.42c2.12,0.46,4.21,0.31,6.01,0.15c8.99-0.81,23-2.83,32.5-4.15c2.45-0.34,4.58-0.72,7-0.13"/>
	<path id="kvg:07f36-s3" kvg:type="㇐" d="M15.38,54.98c3.2,1.14,7.68,0.81,10.99,0.42c20.88-2.52,40.38-4.89,58.75-5.77c3.19-0.15,6.36-0.23,9.5,0.44"/>
	<path id="kvg:07f36-s4" kvg:type="㇑a" d="M53.06,31.63c1.09,1.09,1.26,2.62,1.26,4.5c0,6.62,0,45.37,0,51.75"/>
	<path id="kvg:07f36-s5" kvg:type="㇄a" d="M27.06,66.38c0.84,0.84,1.01,2.24,1.01,3.75c0,5.62-0.07,7.37,0,18c0.02,3.15,0.11,3.91,3.3,3.49c15.12-2,29.5-3.38,48.7-4.24"/>
	<path id="kvg:07f36-s6" kvg:type="㇑" d="M82.56,60.88c0.69,1.12,0.94,2.49,0.76,4.5c-0.36,4.06-1.1,11.75-1.85,19.89c-0.27,2.95-0.57,5.88-0.9,8.61"/>
</g>
</g>
<g id="kvg:StrokeNumbers_07f36" font-size="8" fill="#210c0c">
	<text transform="matrix(1 0 0 1 32.50 14.50)">1</text>
	<text transform="matrix(1 0 0 1 45.75 27.13)">2</text>
	<text transform="matrix(1 0 0 1 7.50 57.13)">3</text>
	<text transform="matrix(1 0 0 1 45.75 40.63)">4</text>
	<text transform="matrix(1 0 0 1 18.75 68.50)">5</text>
	<text transform="matrix(1 0 0 1 72.50 62.50)">6</text>
</g>
</svg>

