<?xml version="1.0" encoding="UTF-8"?>

<!DOCTYPE svg PUBLIC "-//W3C//DTD SVG 1.0//EN" "http://www.w3.org/TR/2001/REC-SVG-20010904/DTD/svg10.dtd" [
<!ATTLIST g
xmlns:kvg CDATA #FIXED "http://kanjivg.tagaini.net"
kvg:element CDATA #IMPLIED
kvg:variant CDATA #IMPLIED
kvg:partial CDATA #IMPLIED
kvg:original CDATA #IMPLIED
kvg:part CDATA #IMPLIED
kvg:number CDATA #IMPLIED
kvg:tradForm CDATA #IMPLIED
kvg:radicalForm CDATA #IMPLIED
kvg:position CDATA #IMPLIED
kvg:radical CDATA #IMPLIED
kvg:phon CDATA #IMPLIED >
<!ATTLIST path
xmlns:kvg CDATA #FIXED "http://kanjivg.tagaini.net"
kvg:type CDATA #IMPLIED >
]>
<svg xmlns="http://www.w3.org/2000/svg" width="109" height="109" viewBox="0 0 109 109">
<g id="kvg:StrokePaths_03067" style="fill:none;stroke:#000000;stroke-width:3;stroke-linecap:round;stroke-linejoin:round;">
<g id="kvg:03067" kvg:element="ã§">
	<path id="kvg:03067-s1" d="M20.5,26.38c1.87,1.62,4.42,1.97,8.12,1.37c21.75-3.5,33-5.12,50.12-8.38c12.34-2.34,13-0.88,0.38,1.38c-17.89,3.19-33.78,19.12-33.78,37.62c0,20.5,17.91,30.25,35.16,30.25"/>
	<path id="kvg:03067-s2" d="M75,41.75c2.75,1.75,6,5.38,7.75,8.5"/>
	<path id="kvg:03067-s3" d="M81.37,36.88c3.06,1.57,6.68,4.82,8.62,7.62"/>
</g>
</g>
<g id="kvg:StrokeNumbers_03067" font-size="8" fill="#210c0c">
	<text transform="matrix(1 0 0 1 16.5 20.38)">1</text>
	<text transform="matrix(1 0 0 1 67.37 40.75)">2</text>
	<text transform="matrix(1 0 0 1 73.5 35.63)">3</text>
</g>
</svg>

