<?xml version="1.0" encoding="UTF-8"?>

<!DOCTYPE svg PUBLIC "-//W3C//DTD SVG 1.0//EN" "http://www.w3.org/TR/2001/REC-SVG-20010904/DTD/svg10.dtd" [
<!ATTLIST g
xmlns:kvg CDATA #FIXED "http://kanjivg.tagaini.net"
kvg:element CDATA #IMPLIED
kvg:variant CDATA #IMPLIED
kvg:partial CDATA #IMPLIED
kvg:original CDATA #IMPLIED
kvg:part CDATA #IMPLIED
kvg:number CDATA #IMPLIED
kvg:tradForm CDATA #IMPLIED
kvg:radicalForm CDATA #IMPLIED
kvg:position CDATA #IMPLIED
kvg:radical CDATA #IMPLIED
kvg:phon CDATA #IMPLIED >
<!ATTLIST path
xmlns:kvg CDATA #FIXED "http://kanjivg.tagaini.net"
kvg:type CDATA #IMPLIED >
]>
<svg xmlns="http://www.w3.org/2000/svg" width="109" height="109" viewBox="0 0 109 109">
<g id="kvg:StrokePaths_03086" style="fill:none;stroke:#000000;stroke-width:3;stroke-linecap:round;stroke-linejoin:round;">
<g id="kvg:03086" kvg:element="ゆ">
	<path id="kvg:03086-s1" d="M21.05,25.38c1.38,1.5,2.02,4.13,1.5,6.25c-2.88,11.75-4,22.25-2.12,35c2.77,18.85,1.12,3.88,3.25-1.5c9-22.75,27.24-34.5,44.38-34.5c16.88,0,21.88,11.38,21.88,20.25c0,27.38-30.88,29.62-43,16.75"/>
	<path id="kvg:03086-s2" d="M58.42,16.75c2.62,1.75,3.17,3.13,3.5,7.12c0.88,10.5,1.4,18.72,1.62,29.38c0.5,24-6.25,32-12.38,39.25"/>
</g>
</g>
<g id="kvg:StrokeNumbers_03086" font-size="8" fill="#210c0c">
	<text transform="matrix(1 0 0 1 12.67 22)">1</text>
	<text transform="matrix(1 0 0 1 49.8 15.88)">2</text>
</g>
</svg>

