<?xml version="1.0" encoding="UTF-8"?>

<!DOCTYPE svg PUBLIC "-//W3C//DTD SVG 1.0//EN" "http://www.w3.org/TR/2001/REC-SVG-20010904/DTD/svg10.dtd" [
<!ATTLIST g
xmlns:kvg CDATA #FIXED "http://kanjivg.tagaini.net"
kvg:element CDATA #IMPLIED
kvg:variant CDATA #IMPLIED
kvg:partial CDATA #IMPLIED
kvg:original CDATA #IMPLIED
kvg:part CDATA #IMPLIED
kvg:number CDATA #IMPLIED
kvg:tradForm CDATA #IMPLIED
kvg:radicalForm CDATA #IMPLIED
kvg:position CDATA #IMPLIED
kvg:radical CDATA #IMPLIED
kvg:phon CDATA #IMPLIED >
<!ATTLIST path
xmlns:kvg CDATA #FIXED "http://kanjivg.tagaini.net"
kvg:type CDATA #IMPLIED >
]>
<svg xmlns="http://www.w3.org/2000/svg" width="109" height="109" viewBox="0 0 109 109">
<g id="kvg:StrokePaths_030b5" style="fill:none;stroke:#000000;stroke-width:3;stroke-linecap:round;stroke-linejoin:round;">
<g id="kvg:030b5" kvg:element="サ">
	<path id="kvg:030b5-s1" d="M16.5,44.34c2.84,1.27,4.77,1.91,8.93,1.13c17.2-3.22,40.45-5.35,58.53-5.34c4.33,0,6.92,0.37,10.42,0.82"/>
	<path id="kvg:030b5-s2" d="M36.63,23.38c1.12,1.38,1.19,2.5,1.25,4.75c0.25,9,0.38,20.25,0.75,28.88c0.14,3.25,0.38,7.12,0.38,9.25"/>
	<path id="kvg:030b5-s3" d="M69.63,16.62c1.5,2,1.62,2.87,1.62,6.25c0,8.25-0.16,9-0.16,15.88c0,23.25-9.34,42.5-23.21,53"/>
</g>
</g>
<g id="kvg:StrokeNumbers_030b5" font-size="8" fill="#210c0c">
	<text transform="matrix(1 0 0 1 11.88 39.63)">1</text>
	<text transform="matrix(1 0 0 1 27 21.63)">2</text>
	<text transform="matrix(1 0 0 1 60.63 16.13)">3</text>
</g>
</svg>

