<?xml version="1.0" encoding="UTF-8"?>

<!DOCTYPE svg PUBLIC "-//W3C//DTD SVG 1.0//EN" "http://www.w3.org/TR/2001/REC-SVG-20010904/DTD/svg10.dtd" [
<!ATTLIST g
xmlns:kvg CDATA #FIXED "http://kanjivg.tagaini.net"
kvg:element CDATA #IMPLIED
kvg:variant CDATA #IMPLIED
kvg:partial CDATA #IMPLIED
kvg:original CDATA #IMPLIED
kvg:part CDATA #IMPLIED
kvg:number CDATA #IMPLIED
kvg:tradForm CDATA #IMPLIED
kvg:radicalForm CDATA #IMPLIED
kvg:position CDATA #IMPLIED
kvg:radical CDATA #IMPLIED
kvg:phon CDATA #IMPLIED >
<!ATTLIST path
xmlns:kvg CDATA #FIXED "http://kanjivg.tagaini.net"
kvg:type CDATA #IMPLIED >
]>
<svg xmlns="http://www.w3.org/2000/svg" width="109" height="109" viewBox="0 0 109 109">
<g id="kvg:StrokePaths_030c6" style="fill:none;stroke:#000000;stroke-width:3;stroke-linecap:round;stroke-linejoin:round;">
<g id="kvg:030c6" kvg:element="テ">
	<path id="kvg:030c6-s1" d="M36.5,21.5c2.12,1.25,4.38,1.59,7.25,1.25c10.62-1.25,16.88-2.25,24.62-3.25c3.73-0.48,5.63-0.5,8.13-0.25"/>
	<path id="kvg:030c6-s2" d="M20,44.12c2.88,1,5.26,1.05,7.5,0.75c22.38-3,37-5.62,54.13-6.12c5.62-0.16,7.75,0,10.38,0.62"/>
	<path id="kvg:030c6-s3" d="M58,43.25c0.88,1,1.32,2.63,1.12,4.38c-1.74,15.37-11.62,34.99-24.62,41.87"/>
</g>
</g>
<g id="kvg:StrokeNumbers_030c6" font-size="8" fill="#210c0c">
	<text transform="matrix(1 0 0 1 29.38 19.25)">1</text>
	<text transform="matrix(1 0 0 1 16.38 39.75)">2</text>
	<text transform="matrix(1 0 0 1 50.38 49.88)">3</text>
</g>
</svg>

