<?xml version="1.0" encoding="UTF-8"?>

<!DOCTYPE svg PUBLIC "-//W3C//DTD SVG 1.0//EN" "http://www.w3.org/TR/2001/REC-SVG-20010904/DTD/svg10.dtd" [
<!ATTLIST g
xmlns:kvg CDATA #FIXED "http://kanjivg.tagaini.net"
kvg:element CDATA #IMPLIED
kvg:variant CDATA #IMPLIED
kvg:partial CDATA #IMPLIED
kvg:original CDATA #IMPLIED
kvg:part CDATA #IMPLIED
kvg:number CDATA #IMPLIED
kvg:tradForm CDATA #IMPLIED
kvg:radicalForm CDATA #IMPLIED
kvg:position CDATA #IMPLIED
kvg:radical CDATA #IMPLIED
kvg:phon CDATA #IMPLIED >
<!ATTLIST path
xmlns:kvg CDATA #FIXED "http://kanjivg.tagaini.net"
kvg:type CDATA #IMPLIED >
]>
<svg xmlns="http://www.w3.org/2000/svg" width="109" height="109" viewBox="0 0 109 109">
<g id="kvg:StrokePaths_030e6" style="fill:none;stroke:#000000;stroke-width:3;stroke-linecap:round;stroke-linejoin:round;">
<g id="kvg:030e6" kvg:element="ユ">
	<path id="kvg:030e6-s1" d="M29.5,35.38c2.38,1.5,5.14,2.08,9.25,1.5c13.25-1.88,18.02-2.4,27.62-4c6.75-1.12,7.78,0.16,6.5,6.38c-2.38,11.5-4.88,24.5-6.5,34.5"/>
	<path id="kvg:030e6-s2" d="M17,76.88c2.75,1.5,4.76,2.05,9.12,1.5c22.62-2.88,36-3.88,54.12-3.88c3.75,0,7.38,0.5,11.12,1.12"/>
</g>
</g>
<g id="kvg:StrokeNumbers_030e6" font-size="8" fill="#210c0c">
	<text transform="matrix(1 0 0 1 23.25 31.88)">1</text>
	<text transform="matrix(1 0 0 1 13.88 71.75)">2</text>
</g>
</svg>

