<?xml version="1.0" encoding="UTF-8"?>

<!DOCTYPE svg PUBLIC "-//W3C//DTD SVG 1.0//EN" "http://www.w3.org/TR/2001/REC-SVG-20010904/DTD/svg10.dtd" [
<!ATTLIST g
xmlns:kvg CDATA #FIXED "http://kanjivg.tagaini.net"
kvg:element CDATA #IMPLIED
kvg:variant CDATA #IMPLIED
kvg:partial CDATA #IMPLIED
kvg:original CDATA #IMPLIED
kvg:part CDATA #IMPLIED
kvg:number CDATA #IMPLIED
kvg:tradForm CDATA #IMPLIED
kvg:radicalForm CDATA #IMPLIED
kvg:position CDATA #IMPLIED
kvg:radical CDATA #IMPLIED
kvg:phon CDATA #IMPLIED >
<!ATTLIST path
xmlns:kvg CDATA #FIXED "http://kanjivg.tagaini.net"
kvg:type CDATA #IMPLIED >
]>
<svg xmlns="http://www.w3.org/2000/svg" width="109" height="109" viewBox="0 0 109 109">
<g id="kvg:StrokePaths_030fa" style="fill:none;stroke:#000000;stroke-width:3;stroke-linecap:round;stroke-linejoin:round;">
<g id="kvg:030fa" kvg:element="ヺ">
	<path id="kvg:030fa-s1" d="M30.24,25.14c2.38,1.7,5.11,2.13,9.25,1.7c12.32-1.29,21.94-2.6,30.48-3.64c2.81-0.34,5.51-0.65,8.14-0.93"/>
	<path id="kvg:030fa-s2" d="M29,46.69c2.25,1.44,4.44,1.9,8.05,1.4c8.19-1.15,19.93-2.64,28.56-3.79c2.38-0.31,4.65-0.62,6.75-0.92"/>
	<path id="kvg:030fa-s3" d="M78,22.88c0.88,2,0.62,4.64,0.12,7c-4.88,22.5-23.5,47.12-44.12,60.74"/>
	<path id="kvg:030fa-s4" d="M83.62,12.88c2.61,1.93,5.7,5.93,7.36,9.37"/>
	<path id="kvg:030fa-s5" d="M89.68,7.75c2.82,1.78,6.15,5.48,7.94,8.66"/>
</g>
</g>
<g id="kvg:StrokeNumbers_030fa" font-size="8" fill="#210c0c">
	<text transform="matrix(1 0 0 1 27 20.38)">1</text>
	<text transform="matrix(1 0 0 1 25.12 43)">2</text>
	<text transform="matrix(1 0 0 1 81 27.25)">3</text>
	<text transform="matrix(1 0 0 1 77 13.25)">4</text>
	<text transform="matrix(1 0 0 1 83.37 6.88)">5</text>
</g>
</svg>

