<?xml version="1.0" standalone="no"?>
<!DOCTYPE svg PUBLIC "-//W3C//DTD SVG 20010904//EN"
 "http://www.w3.org/TR/2001/REC-SVG-20010904/DTD/svg10.dtd">
<svg version="1.0" xmlns="http://www.w3.org/2000/svg"
 width="200.000000pt" height="200.000000pt" viewBox="0 0 200.000000 200.000000"
 preserveAspectRatio="xMidYMid meet">
<metadata>
Created by potrace 1.14, written by Peter Selinger 2001-2017
</metadata>
<g transform="translate(0.000000,200.000000) scale(0.100000,-0.100000)"
fill="#000000" stroke="none">
<path d="M190 1978 c-71 -27 -142 -99 -169 -173 -20 -54 -21 -71 -21 -813 l1
-757 30 -62 c35 -72 90 -124 163 -152 49 -19 78 -20 821 -18 l770 2 45 25 c66
36 126 102 149 166 21 54 21 69 18 817 l-2 762 -28 57 c-33 68 -91 120 -161
147 -49 19 -82 20 -806 20 -742 0 -756 -1 -810 -21z"/>
</g>
</svg>
