<?xml version="1.0" encoding="UTF-8"?>

<!DOCTYPE svg PUBLIC "-//W3C//DTD SVG 1.0//EN" "http://www.w3.org/TR/2001/REC-SVG-20010904/DTD/svg10.dtd" [
<!ATTLIST g
xmlns:kvg CDATA #FIXED "http://kanjivg.tagaini.net"
kvg:element CDATA #IMPLIED
kvg:variant CDATA #IMPLIED
kvg:partial CDATA #IMPLIED
kvg:original CDATA #IMPLIED
kvg:part CDATA #IMPLIED
kvg:number CDATA #IMPLIED
kvg:tradForm CDATA #IMPLIED
kvg:radicalForm CDATA #IMPLIED
kvg:position CDATA #IMPLIED
kvg:radical CDATA #IMPLIED
kvg:phon CDATA #IMPLIED >
<!ATTLIST path
xmlns:kvg CDATA #FIXED "http://kanjivg.tagaini.net"
kvg:type CDATA #IMPLIED >
]>
<svg xmlns="http://www.w3.org/2000/svg" width="109" height="109" viewBox="0 0 109 109">
<g id="kvg:StrokePaths_05ddd" style="fill:none;stroke:#000000;stroke-width:3;stroke-linecap:round;stroke-linejoin:round;">
<g id="kvg:05ddd" kvg:element="川" kvg:original="巛" kvg:radical="general">
	<path id="kvg:05ddd-s1" kvg:type="㇒" d="M27.22,25.68c0.91,1.57,1.18,3.45,1.19,5.37C28.5,43.5,28.5,69,17.39,84.15"/>
	<path id="kvg:05ddd-s2" kvg:type="㇑" d="M53.75,23.63c0.94,0.94,1.41,2.37,1.41,3.9c0,0.58-0.01,28.48-0.08,41.71c-0.02,3.31-0.04,5.74-0.06,6.63"/>
	<path id="kvg:05ddd-s3" kvg:type="㇑" d="M85.56,15.63c1.09,1.09,1.76,2.62,1.76,4.25c0,0.74,0.23,46.86,0.09,66.12c-0.03,4.31-0.06,7.61-0.09,8.63"/>
</g>
</g>
<g id="kvg:StrokeNumbers_05ddd" font-size="8" fill="#210c0c">
	<text transform="matrix(1 0 0 1 18.50 25.50)">1</text>
	<text transform="matrix(1 0 0 1 45.75 23.50)">2</text>
	<text transform="matrix(1 0 0 1 75.50 16.50)">3</text>
</g>
</svg>

