<?xml version="1.0" encoding="UTF-8"?>

<!DOCTYPE svg PUBLIC "-//W3C//DTD SVG 1.0//EN" "http://www.w3.org/TR/2001/REC-SVG-20010904/DTD/svg10.dtd" [
<!ATTLIST g
xmlns:kvg CDATA #FIXED "http://kanjivg.tagaini.net"
kvg:element CDATA #IMPLIED
kvg:variant CDATA #IMPLIED
kvg:partial CDATA #IMPLIED
kvg:original CDATA #IMPLIED
kvg:part CDATA #IMPLIED
kvg:number CDATA #IMPLIED
kvg:tradForm CDATA #IMPLIED
kvg:radicalForm CDATA #IMPLIED
kvg:position CDATA #IMPLIED
kvg:radical CDATA #IMPLIED
kvg:phon CDATA #IMPLIED >
<!ATTLIST path
xmlns:kvg CDATA #FIXED "http://kanjivg.tagaini.net"
kvg:type CDATA #IMPLIED >
]>
<svg xmlns="http://www.w3.org/2000/svg" width="109" height="109" viewBox="0 0 109 109">
<g id="kvg:StrokePaths_0793a" style="fill:none;stroke:#000000;stroke-width:3;stroke-linecap:round;stroke-linejoin:round;">
<g id="kvg:0793a" kvg:element="示" kvg:radical="general">
	<g id="kvg:0793a-g1" kvg:position="top">
		<path id="kvg:0793a-s1" kvg:type="㇐" d="M29.53,20.89c2.34,0.49,4.67,0.27,6.74,0.09c7.65-0.7,24.51-2.27,32.6-2.73c2.32-0.13,4.84-0.29,7.12,0.27"/>
		<path id="kvg:0793a-s2" kvg:type="㇐" d="M17.53,44.97c2.95,1.05,6.46,0.68,9.49,0.39c12.45-1.17,38.73-3.73,54.23-4.52c2.86-0.15,5.89-0.05,8.72,0.56"/>
	</g>
	<g id="kvg:0793a-g2" kvg:position="bottom">
		<path id="kvg:0793a-s3" kvg:type="㇚" d="M53.52,46.83c1.2,1.2,2.01,2.79,2.01,5.02c0,14.56-0.01,33.66-0.01,38.62c0,10.53-4.52,3.78-8.71,0.25"/>
		<path id="kvg:0793a-s4" kvg:type="㇒" d="M32.26,62.39c0.04,0.6,0.24,1.58-0.09,2.4C30,70.25,23.62,78.75,15.5,86.5"/>
		<path id="kvg:0793a-s5" kvg:type="㇔" d="M82.25,63.5c4.16,3.38,10.96,13.5,12,18.75"/>
	</g>
</g>
</g>
<g id="kvg:StrokeNumbers_0793a" font-size="8" fill="#210c0c">
	<text transform="matrix(1 0 0 1 23.25 21.13)">1</text>
	<text transform="matrix(1 0 0 1 9.75 46.55)">2</text>
	<text transform="matrix(1 0 0 1 47.50 55.48)">3</text>
	<text transform="matrix(1 0 0 1 24.50 64.40)">4</text>
	<text transform="matrix(1 0 0 1 75 65)">5</text>
</g>
</svg>

